<?xml version="1.0" encoding="iso-8859-1"?>
<!-- Uploaded to: SVG Repo, www.svgrepo.com, Generator: SVG Repo Mixer Tools -->
<svg fill="#000000" version="1.1" id="Layer_1" xmlns="http://www.w3.org/2000/svg" xmlns:xlink="http://www.w3.org/1999/xlink" 
	 viewBox="0 0 512 512" xml:space="preserve">
<g>
	<g>
		<g>
			<rect x="101.513" y="24.397" width="357.759" height="15.754"/>
			<polygon points="134.294,48.532 134.294,113.326 377.716,113.326 377.716,48.532 361.962,48.532 361.962,97.572 150.048,97.572 
				150.048,48.532 			"/>
			<polygon points="93.13,15.754 255.627,15.754 255.627,0 77.377,0 77.377,129.842 93.13,129.842 			"/>
			<rect x="134.039" y="121.966" width="243.933" height="15.754"/>
			<rect x="52.728" y="24.397" width="16.262" height="15.754"/>
			<rect x="77.378" y="137.972" width="15.754" height="32.524"/>
			<path d="M239.489,187.013H134.294v56.409h105.195V187.013z M223.735,227.668h-73.687v-24.902h73.687V227.668z"/>
			<path d="M377.717,243.422v-56.409H272.522v56.409h105.195H377.717z M361.963,227.668h-73.688v-24.902h73.688V227.668z"/>
			<rect x="166.565" y="162.622" width="73.182" height="15.754"/>
			<rect x="272.263" y="162.622" width="73.182" height="15.754"/>
			<rect x="247.876" y="203.277" width="16.262" height="15.754"/>
			<polygon points="280.144,300.34 280.144,284.078 296.406,284.078 296.406,259.938 280.653,259.938 280.653,268.324 
				264.39,268.324 264.39,284.586 247.62,284.586 247.62,268.324 231.358,268.324 231.358,259.938 215.604,259.938 215.604,284.078 
				231.866,284.078 231.866,300.34 			"/>
			<rect x="134.291" y="146.101" width="15.754" height="32.524"/>
			<rect x="361.966" y="146.101" width="15.754" height="32.524"/>
			<path d="M386.102,227.668v15.754c17.793,0,32.27-14.476,32.27-32.27c0-17.794-14.477-32.27-32.27-32.27v15.754
				c9.107,0,16.516,7.41,16.516,16.516C402.618,220.259,395.208,227.668,386.102,227.668z"/>
			<path d="M125.909,194.636v-15.754c-17.794,0-32.27,14.477-32.27,32.27s14.477,32.27,32.27,32.27v-15.754
				c-9.107,0-16.516-7.41-16.516-16.516C109.393,202.045,116.802,194.636,125.909,194.636z"/>
			<rect x="215.35" y="349.63" width="81.311" height="15.754"/>
			<path d="M377.717,251.807h-15.754v16.516h-57.171v15.754H418.12c-3.681,18.803-20.284,33.033-40.148,33.033h-97.826v-8.385
				h-15.754v24.139h97.572v41.549c0,17.721-14.418,32.138-32.138,32.138h-65.943v-32.779h-15.754v32.779h-65.943
				c-17.721,0-32.138-14.417-32.138-32.138v-41.549h97.572v-24.139h-15.754v8.385H134.04c-19.865,0-36.467-14.23-40.148-33.033
				h113.327v-15.754h-57.172v-16.516h-15.754v16.516H77.377v7.877c0,31.244,25.419,56.663,56.663,56.663h0.254v41.549
				c0,26.408,21.484,47.892,47.892,47.892h0.895v16.771h-16.516c-40.211,0-72.926,32.713-72.926,72.924h15.754
				c0-31.524,25.647-57.171,57.172-57.171h22.965l58.599,21.974V512h15.754v-35.196l58.599-21.975h22.965
				c31.524,0,57.172,25.647,57.172,57.171h15.754c0-40.211-32.713-72.925-72.926-72.925H328.93v-16.77h0.895v0
				c26.408,0,47.892-21.484,47.892-47.892v-41.549h0.254c31.244,0,56.663-25.419,56.663-56.663v-7.877h-56.917V251.807z
				 M312.923,439.075v2.513l-56.918,21.343l-56.918-21.343v-2.513h-0.254v-16.77h114.342v16.77H312.923z"/>
			<rect x="272.263" y="495.994" width="16.262" height="15.754"/>
		</g>
	</g>
</g>
</svg>